<svg xmlns="http://www.w3.org/2000/svg" width="26" height="27" viewBox="0 0 26 27" fill="none">
  <path d="M8.45 2.79395H17.55C21.0167 2.79395 23.8333 5.61061 23.8333 9.07728V18.1773C23.8333 19.8437 23.1713 21.4419 21.993 22.6203C20.8146 23.7986 19.2164 24.4606 17.55 24.4606H8.45C4.98333 24.4606 2.16666 21.6439 2.16666 18.1773V9.07728C2.16666 7.41084 2.82866 5.81264 4.00701 4.63429C5.18536 3.45594 6.78355 2.79395 8.45 2.79395ZM8.23333 4.96061C7.19899 4.96061 6.20701 5.3715 5.47561 6.1029C4.74422 6.83429 4.33333 7.82627 4.33333 8.86061V18.3939C4.33333 20.5498 6.0775 22.2939 8.23333 22.2939H17.7667C18.801 22.2939 19.793 21.8831 20.5244 21.1517C21.2558 20.4203 21.6667 19.4283 21.6667 18.3939V8.86061C21.6667 6.70478 19.9225 4.96061 17.7667 4.96061H8.23333ZM18.6875 6.58561C19.0466 6.58561 19.3911 6.72828 19.645 6.98224C19.899 7.23619 20.0417 7.58063 20.0417 7.93978C20.0417 8.29893 19.899 8.64336 19.645 8.89732C19.3911 9.15127 19.0466 9.29395 18.6875 9.29395C18.3284 9.29395 17.9839 9.15127 17.73 8.89732C17.476 8.64336 17.3333 8.29893 17.3333 7.93978C17.3333 7.58063 17.476 7.23619 17.73 6.98224C17.9839 6.72828 18.3284 6.58561 18.6875 6.58561ZM13 8.21061C14.4366 8.21061 15.8143 8.7813 16.8302 9.79712C17.846 10.8129 18.4167 12.1907 18.4167 13.6273C18.4167 15.0639 17.846 16.4416 16.8302 17.4574C15.8143 18.4733 14.4366 19.0439 13 19.0439C11.5634 19.0439 10.1857 18.4733 9.16984 17.4574C8.15401 16.4416 7.58333 15.0639 7.58333 13.6273C7.58333 12.1907 8.15401 10.8129 9.16984 9.79712C10.1857 8.7813 11.5634 8.21061 13 8.21061ZM13 10.3773C12.138 10.3773 11.3114 10.7197 10.7019 11.3292C10.0924 11.9387 9.75 12.7653 9.75 13.6273C9.75 14.4892 10.0924 15.3159 10.7019 15.9254C11.3114 16.5349 12.138 16.8773 13 16.8773C13.862 16.8773 14.6886 16.5349 15.2981 15.9254C15.9076 15.3159 16.25 14.4892 16.25 13.6273C16.25 12.7653 15.9076 11.9387 15.2981 11.3292C14.6886 10.7197 13.862 10.3773 13 10.3773Z" fill="white"/>
</svg>