<svg xmlns="http://www.w3.org/2000/svg" width="26" height="26" viewBox="0 0 26 26" fill="none">
  <path d="M17.9357 13.9818L17.4427 14.4726C17.4427 14.4726 16.2695 15.6382 13.0682 12.4554C9.86699 9.27255 11.0402 8.10689 11.0402 8.10689L11.3501 7.79705C12.116 7.03655 12.1886 5.81455 11.5202 4.92189L10.1552 3.09864C9.32749 1.99364 7.72958 1.84739 6.78166 2.78989L5.08083 4.47989C4.61174 4.94789 4.29757 5.55239 4.33549 6.22405C4.43299 7.9433 5.21082 11.6407 9.54849 15.9546C14.1494 20.5284 18.4665 20.7104 20.2312 20.5457C20.7902 20.4937 21.2756 20.2099 21.6667 19.8199L23.205 18.2902C24.245 17.2578 23.9525 15.4866 22.6222 14.764L20.553 13.6384C19.6798 13.165 18.6182 13.3036 17.9357 13.9818Z" fill="white"/>
</svg>