<svg xmlns="http://www.w3.org/2000/svg" width="26" height="27" viewBox="0 0 26 27" fill="none">
  <path d="M24.3317 7.12663C23.4975 7.50579 22.5983 7.75496 21.6667 7.87413C22.62 7.29996 23.3567 6.38996 23.7033 5.29579C22.8042 5.83746 21.8075 6.21663 20.7567 6.43329C19.9008 5.50163 18.6983 4.95996 17.3333 4.95996C14.7875 4.95996 12.7075 7.03996 12.7075 9.60746C12.7075 9.97579 12.7508 10.3333 12.8267 10.6691C8.97 10.4741 5.53584 8.62163 3.25 5.81579C2.84917 6.49829 2.62167 7.29996 2.62167 8.14496C2.62167 9.75913 3.43417 11.1891 4.69083 12.0016C3.92167 12.0016 3.20667 11.785 2.57834 11.46V11.4925C2.57834 13.7458 4.18167 15.6308 6.305 16.0533C5.62329 16.2399 4.9076 16.2658 4.21417 16.1291C4.50841 17.0526 5.08467 17.8607 5.86194 18.4398C6.63921 19.0189 7.5784 19.3398 8.5475 19.3575C6.90477 20.6579 4.8685 21.3609 2.77333 21.3508C2.405 21.3508 2.03667 21.3291 1.66833 21.2858C3.72667 22.6075 6.175 23.3766 8.79667 23.3766C17.3333 23.3766 22.0242 16.2916 22.0242 10.1491C22.0242 9.94329 22.0242 9.74829 22.0133 9.54246C22.9233 8.89246 23.7033 8.06913 24.3317 7.12663Z" fill="white"/>
</svg>