<svg xmlns="http://www.w3.org/2000/svg" width="26" height="27" viewBox="0 0 26 27" fill="none">
  <path d="M20.6375 5.94651C19.6443 4.94326 18.4613 4.14782 17.1574 3.60657C15.8536 3.06531 14.455 2.78909 13.0433 2.79401C7.12834 2.79401 2.30751 7.61484 2.30751 13.5298C2.30751 15.4257 2.80584 17.2673 3.73751 18.8923L2.22084 24.4607L7.90834 22.9657C9.47917 23.8215 11.245 24.2765 13.0433 24.2765C18.9583 24.2765 23.7792 19.4557 23.7792 13.5407C23.7792 10.6698 22.6633 7.97234 20.6375 5.94651ZM13.0433 22.4565C11.44 22.4565 9.86917 22.0232 8.49334 21.2107L8.16834 21.0157L4.78834 21.904L5.68751 18.6107L5.47084 18.2748C4.58007 16.8524 4.10708 15.2082 4.10584 13.5298C4.10584 8.61151 8.11417 4.60318 13.0325 4.60318C15.4158 4.60318 17.6583 5.53484 19.3375 7.22484C20.1689 8.05247 20.8278 9.03689 21.276 10.1211C21.7242 11.2052 21.9527 12.3675 21.9483 13.5407C21.97 18.459 17.9617 22.4565 13.0433 22.4565ZM17.94 15.7832C17.6692 15.6532 16.3475 15.0032 16.1092 14.9057C15.86 14.819 15.6867 14.7757 15.5025 15.0357C15.3183 15.3065 14.8092 15.9132 14.6575 16.0865C14.5058 16.2707 14.3433 16.2923 14.0725 16.1515C13.8017 16.0215 12.935 15.729 11.9167 14.819C11.115 14.104 10.5842 13.2265 10.4217 12.9557C10.27 12.6848 10.4 12.544 10.5408 12.4032C10.66 12.284 10.8117 12.089 10.9417 11.9373C11.0717 11.7857 11.1258 11.6665 11.2125 11.4932C11.2992 11.309 11.2558 11.1573 11.1908 11.0273C11.1258 10.8973 10.5842 9.57568 10.3675 9.03401C10.1508 8.51401 9.92334 8.57901 9.76084 8.56818H9.24084C9.05667 8.56818 8.77501 8.63318 8.52584 8.90401C8.28751 9.17484 7.59417 9.82484 7.59417 11.1465C7.59417 12.4682 8.55834 13.7465 8.68834 13.9198C8.81834 14.104 10.5842 16.8123 13.2708 17.9715C13.91 18.2532 14.4083 18.4157 14.7983 18.5348C15.4375 18.7407 16.0225 18.7082 16.4883 18.6432C17.0083 18.5673 18.0808 17.9932 18.2975 17.3648C18.525 16.7365 18.525 16.2057 18.4492 16.0865C18.3733 15.9673 18.2108 15.9132 17.94 15.7832Z" fill="white"/>
</svg>