<svg xmlns="http://www.w3.org/2000/svg" width="24" height="18" viewBox="0 0 24 18" fill="none">
  <path d="M14.1667 8.6276L10.375 10.7943V6.46094L14.1667 8.6276Z" fill="white" stroke="white" stroke-width="1.625" stroke-linecap="round" stroke-linejoin="round"/>
  <path d="M1.16667 9.39421V7.86021C1.16667 4.72396 1.16667 3.1553 2.14708 2.14671C3.12858 1.13705 4.67342 1.09371 7.762 1.00596C9.2245 0.964797 10.7195 0.935547 12 0.935547C13.2794 0.935547 14.7744 0.964797 16.238 1.00596C19.3266 1.09371 20.8714 1.13705 21.8518 2.14671C22.8333 3.1553 22.8333 4.72505 22.8333 7.86021V9.39313C22.8333 12.5305 22.8333 14.098 21.8529 15.1077C20.8714 16.1163 19.3277 16.1607 16.238 16.2474C14.7755 16.2896 13.2805 16.3189 12 16.3189C10.5871 16.3146 9.17427 16.2908 7.762 16.2474C4.67342 16.1607 3.12858 16.1174 2.14708 15.1077C1.16667 14.098 1.16667 12.5294 1.16667 9.39421Z" stroke="white" stroke-width="1.625"/>
</svg>